<svg width="337" height="38" viewBox="0 0 337 38" fill="none" xmlns="http://www.w3.org/2000/svg">
<path d="M22.4312 18.0505H6.56875M2.64062 27.3192L13.0156 2.83712C13.4891 1.72096 15.5094 1.72096 15.9844 2.83712L26.3594 27.3192M2 32H27" stroke="black" stroke-width="3" stroke-linecap="round" stroke-linejoin="round"/>
<path d="M52.01 32H47.48L56.48 10.88H60.62L69.62 32H65.03L62.96 27.14H54.08L52.01 32ZM58.52 16.28L55.43 23.57H61.58L58.52 16.28ZM76.4218 26.42C77.6518 27.71 79.2118 28.37 81.0718 28.37C82.9318 28.37 84.4618 27.71 85.6918 26.42C86.9218 25.13 87.5518 23.48 87.5518 21.5C87.5518 19.52 86.9218 17.87 85.6918 16.58C84.4618 15.29 82.9318 14.63 81.0718 14.63C79.2118 14.63 77.6518 15.29 76.4218 16.58C75.1918 17.87 74.5918 19.52 74.5918 21.5C74.5918 23.48 75.1918 25.13 76.4218 26.42ZM70.1818 21.5C70.1818 18.44 71.2018 15.86 73.2718 13.76C75.3418 11.63 77.9518 10.58 81.0718 10.58C84.1918 10.58 86.7718 11.63 88.8418 13.76C90.9118 15.86 91.9618 18.44 91.9618 21.5C91.9618 24.53 90.9118 27.11 88.8418 29.24C86.7718 31.37 84.1918 32.42 81.0718 32.42C77.9518 32.42 75.3418 31.37 73.2718 29.24C71.2018 27.11 70.1818 24.53 70.1818 21.5ZM112.119 11H115.599L113.019 20.09H108.489L112.119 11ZM105.609 11H109.089L106.509 20.09H101.979L105.609 11ZM118.455 32H113.925L122.925 10.88H127.065L136.065 32H131.475L129.405 27.14H120.525L118.455 32ZM124.965 16.28L121.875 23.57H128.025L124.965 16.28ZM149.221 20.57H144.601L144.541 22.67C144.451 24.74 144.361 26.12 143.851 27.92C143.131 30.44 141.691 32.03 138.721 32.12C138.001 32.12 137.461 32.03 137.131 31.85V28.4C137.371 28.49 137.671 28.52 138.001 28.52C138.991 28.52 139.621 27.95 139.951 26.6C140.311 25.19 140.401 23.93 140.431 21.44L140.521 17.03H153.451V32H149.221V20.57ZM165.626 32H157.586V17.03H161.816V21.41H165.416C169.166 21.41 171.596 23.48 171.596 26.69C171.596 28.22 171.086 29.48 170.036 30.5C168.986 31.49 167.516 32 165.626 32ZM161.816 24.56V28.73H164.756C166.406 28.73 167.366 27.98 167.366 26.66C167.366 25.34 166.406 24.56 164.756 24.56H161.816ZM181.955 16.85V11H186.125V16.85C188.705 16.97 190.715 17.75 192.155 19.16C193.625 20.57 194.345 22.37 194.345 24.5C194.345 28.85 191.405 31.76 186.125 32.15V38H181.955V32.15C179.345 32.06 177.335 31.28 175.865 29.87C174.425 28.43 173.705 26.63 173.705 24.5C173.705 20.18 176.705 17.24 181.955 16.85ZM181.955 28.76V20.27C179.405 20.42 177.785 22.01 177.785 24.5C177.785 26.99 179.405 28.64 181.955 28.76ZM186.125 20.27V28.76C188.675 28.64 190.295 26.99 190.295 24.5C190.295 22.01 188.675 20.42 186.125 20.27ZM211.709 28.73C212.069 28.73 212.369 28.67 212.579 28.55V31.64C212.039 32.06 211.289 32.27 210.299 32.27C208.589 32.27 207.479 31.64 206.909 30.35C205.589 31.7 203.879 32.39 201.749 32.39C198.509 32.39 196.229 30.41 196.229 27.38C196.229 25.79 196.799 24.56 197.969 23.72C199.139 22.88 200.519 22.46 202.139 22.46C203.819 22.46 205.259 22.76 206.459 23.39V22.94C206.459 21.05 205.139 20.12 202.499 20.12C200.909 20.12 199.379 20.54 197.969 21.38V17.84C199.499 17.03 201.329 16.64 203.519 16.64C205.649 16.64 207.389 17.15 208.679 18.2C209.999 19.25 210.659 20.69 210.659 22.52V27.59C210.659 28.34 211.019 28.73 211.709 28.73ZM206.459 27.59V26.09C205.589 25.52 204.569 25.22 203.339 25.22C201.539 25.22 200.399 25.94 200.399 27.17C200.399 28.49 201.509 29.12 203.069 29.12C204.539 29.12 205.679 28.61 206.459 27.59ZM231.701 17.99C233.651 17.99 235.241 18.59 236.471 19.82C237.701 21.05 238.331 22.67 238.331 24.68C238.331 26.93 237.581 28.79 236.081 30.23C234.611 31.67 232.751 32.39 230.501 32.39C227.861 32.39 225.821 31.52 224.411 29.75C223.001 27.98 222.281 25.61 222.281 22.64C222.281 18.65 223.331 15.98 225.821 14.15C227.081 13.22 228.551 12.47 230.201 11.93C231.881 11.36 234.011 10.88 236.591 10.46V14.39L235.001 14.66L233.441 14.93C233.111 14.99 232.661 15.08 232.031 15.23C230.831 15.47 230.441 15.62 229.481 15.98C228.521 16.34 228.161 16.67 227.531 17.24C226.691 17.99 226.241 19.1 226.121 20.54C227.471 18.83 229.331 17.99 231.701 17.99ZM230.471 28.82C232.631 28.82 234.161 27.23 234.161 24.98C234.161 22.85 232.691 21.5 230.621 21.5C228.941 21.5 227.261 22.46 226.421 23.78C226.451 27.02 227.951 28.82 230.471 28.82ZM255.713 28.73C256.073 28.73 256.373 28.67 256.583 28.55V31.64C256.043 32.06 255.293 32.27 254.303 32.27C252.593 32.27 251.483 31.64 250.913 30.35C249.593 31.7 247.883 32.39 245.753 32.39C242.513 32.39 240.233 30.41 240.233 27.38C240.233 25.79 240.803 24.56 241.973 23.72C243.143 22.88 244.523 22.46 246.143 22.46C247.823 22.46 249.263 22.76 250.463 23.39V22.94C250.463 21.05 249.143 20.12 246.503 20.12C244.913 20.12 243.383 20.54 241.973 21.38V17.84C243.503 17.03 245.333 16.64 247.523 16.64C249.653 16.64 251.393 17.15 252.683 18.2C254.003 19.25 254.663 20.69 254.663 22.52V27.59C254.663 28.34 255.023 28.73 255.713 28.73ZM250.463 27.59V26.09C249.593 25.52 248.573 25.22 247.343 25.22C245.543 25.22 244.403 25.94 244.403 27.17C244.403 28.49 245.513 29.12 247.073 29.12C248.543 29.12 249.683 28.61 250.463 27.59ZM263.739 32H259.509V17.03H263.739V22.58H269.889V17.03H274.119V32H269.889V26.12H263.739V32ZM282.489 32H278.259V17.03H282.489V22.49L287.649 17.03H292.839L286.329 23.78L293.859 32H288.399L282.489 25.55V32ZM304.918 20.09H301.438L304.018 11H308.548L304.918 20.09ZM298.408 20.09H294.928L297.508 11H302.038L298.408 20.09Z" fill="black"/>
</svg>
