<svg width="45" height="45" viewBox="0 0 45 45" fill="none" xmlns="http://www.w3.org/2000/svg">
<path d="M42.1875 2.8125V42.1875H2.8125V2.8125H42.1875ZM43.5938 1.40625H1.40625V43.5938H43.5938V1.40625Z" fill="white"/>
<path d="M42.1875 2.8125V42.1875H2.8125V2.8125H42.1875ZM43.5938 1.40625H1.40625V43.5938H43.5938V1.40625Z" fill="white"/>
<path d="M33.5699 31.6744V23.4872C33.5699 19.1011 31.2285 17.0592 28.1066 17.0592C25.5866 17.0592 24.4588 18.4458 23.8288 19.4175V17.3953H19.0827C19.146 18.7355 19.0827 31.6744 19.0827 31.6744H23.8288V23.6995C23.8288 23.2734 23.8598 22.8473 23.9849 22.5422C24.3281 21.69 25.1085 20.8069 26.4192 20.8069C28.1376 20.8069 28.8238 22.1161 28.8238 24.0356V31.6758L33.5699 31.6744ZM14.0835 15.4463C15.7387 15.4463 16.7695 14.3494 16.7695 12.9783C16.7385 11.5777 15.7387 10.5117 14.1159 10.5117C12.4931 10.5117 11.4299 11.5777 11.4299 12.9783C11.4299 14.3494 12.4607 15.4463 14.054 15.4463H14.0835ZM16.4559 31.6744V17.3953H11.7098V31.6744H16.4559Z" fill="#EFA359"/>
</svg>
