<svg width="45" height="45" viewBox="0 0 45 45" fill="none" xmlns="http://www.w3.org/2000/svg">
<path d="M36.4695 14.9977C36.6736 14.3196 36.4695 13.8223 35.504 13.8223H32.3059C31.4922 13.8223 31.1203 14.2525 30.9161 14.725C30.9161 14.725 29.2901 18.6902 26.9859 21.2612C26.2422 22.0093 25.9024 22.2456 25.497 22.2456C25.2942 22.2456 24.9997 22.0093 24.9997 21.3312V14.9977C24.9997 14.1839 24.7649 13.8223 24.0867 13.8223H19.0613C18.5538 13.8223 18.2476 14.1985 18.2476 14.5573C18.2476 15.3273 19.3997 15.5052 19.5178 17.6752V22.3827C19.5178 23.4137 19.3326 23.6018 18.9242 23.6018C17.8407 23.6018 15.204 19.6221 13.6392 15.0662C13.3345 14.181 13.0267 13.8237 12.2101 13.8237H9.01341C8.09904 13.8237 7.91675 14.2539 7.91675 14.7264C7.91675 15.5752 9.00029 19.7752 12.964 25.33C15.6065 29.1231 19.3267 31.1793 22.7159 31.1793C24.7474 31.1793 24.9982 30.7229 24.9982 29.9354V27.0683C24.9982 26.1554 25.1922 25.9716 25.8353 25.9716C26.3078 25.9716 27.1215 26.2108 29.0188 28.0381C31.1859 30.2052 31.5447 31.1779 32.7624 31.1779H35.959C36.872 31.1779 37.3284 30.7214 37.0659 29.8202C36.7786 28.9233 35.7432 27.6181 34.3695 26.0737C33.6228 25.1929 32.5072 24.245 32.1674 23.771C31.6934 23.16 31.8305 22.8902 32.1674 22.3477C32.1688 22.3491 36.064 16.8629 36.4695 14.9977Z" fill="white"/>
<path d="M0.75 0.75H44.25V44.25H0.75V0.75Z" stroke="white" stroke-width="1.5"/>
</svg>
