<svg width="45" height="45" viewBox="0 0 45 45" fill="none" xmlns="http://www.w3.org/2000/svg">
<path d="M42.1875 2.8125V42.1875H2.8125V2.8125H42.1875ZM43.5938 1.40625H1.40625V43.5938H43.5938V1.40625Z" fill="white"/>
<path d="M42.1875 2.8125V42.1875H2.8125V2.8125H42.1875ZM43.5938 1.40625H1.40625V43.5938H43.5938V1.40625Z" fill="white"/>
<path d="M22.732 9.68555V15.679H28.7255V19.4252H22.732V25.4187C22.732 26.8109 22.8642 27.9288 23.0119 28.324C23.1595 28.7177 23.4323 29.0327 23.8345 29.2704C24.3675 29.5896 24.9736 29.7499 25.6584 29.7499C26.8748 29.7499 28.2881 29.3365 29.475 28.4154V32.1616C28.4766 32.786 27.3305 33.1741 26.498 33.3682C25.6669 33.5609 24.7669 33.6593 23.7994 33.6593C22.7883 33.6593 21.8123 33.5482 20.8884 33.243C20.0447 32.966 19.5736 32.658 18.9759 32.1476C18.3811 31.6343 18.0914 31.1182 17.8608 30.5388C17.6301 29.9623 17.4867 28.7641 17.4867 27.6659V19.4252H14.49V15.679C15.4491 15.6087 16.2436 15.3387 16.913 14.7677C17.588 14.194 18.128 13.5063 18.533 12.7048C18.9408 11.9018 18.9858 10.9188 18.9858 9.68555H22.732Z" fill="white"/>
</svg>
