<svg width="35" height="35" viewBox="0 0 35 35" fill="none" xmlns="http://www.w3.org/2000/svg">
<path d="M32.8125 2.1875V32.8125H2.1875V2.1875H32.8125ZM33.9062 1.09375H1.09375V33.9062H33.9062V1.09375Z" fill="#414753"/>
<path d="M32.8125 2.1875V32.8125H2.1875V2.1875H32.8125ZM33.9062 1.09375H1.09375V33.9062H33.9062V1.09375Z" fill="#414753"/>
<path d="M26.11 24.6356V18.2678C26.11 14.8564 24.2889 13.2683 21.8608 13.2683C19.9008 13.2683 19.0236 14.3467 18.5336 15.1025V13.5297H14.8422C14.8914 14.572 14.8422 24.6356 14.8422 24.6356H18.5336V18.433C18.5336 18.1016 18.5577 17.7702 18.655 17.5328C18.9219 16.87 19.5289 16.1831 20.5483 16.1831C21.8849 16.1831 22.4186 17.2014 22.4186 18.6944V24.6367L26.11 24.6356ZM10.9539 12.0137C12.2413 12.0137 13.043 11.1606 13.043 10.0942C13.0189 9.00484 12.2413 8.17578 10.9791 8.17578C9.71689 8.17578 8.89001 9.00484 8.89001 10.0942C8.89001 11.1606 9.69173 12.0137 10.931 12.0137H10.9539ZM12.7991 24.6356V13.5297H9.10767V24.6356H12.7991Z" fill="#EFA359"/>
</svg>
