<svg width="45" height="45" viewBox="0 0 45 45" fill="none" xmlns="http://www.w3.org/2000/svg">
<path d="M42.1875 2.8125V42.1875H2.8125V2.8125H42.1875ZM43.5938 1.40625H1.40625V43.5938H43.5938V1.40625Z" fill="#414753"/>
<path d="M42.1875 2.8125V42.1875H2.8125V2.8125H42.1875ZM43.5938 1.40625H1.40625V43.5938H43.5938V1.40625Z" fill="#414753"/>
<path d="M22.7323 9.68555V15.679H28.7257V19.4252H22.7323V25.4187C22.7323 26.8109 22.8645 27.9288 23.0121 28.324C23.1598 28.7177 23.4326 29.0327 23.8348 29.2704C24.3677 29.5896 24.9738 29.7499 25.6587 29.7499C26.8751 29.7499 28.2884 29.3365 29.4752 28.4154V32.1616C28.4768 32.786 27.3307 33.1741 26.4982 33.3682C25.6671 33.5609 24.7671 33.6593 23.7996 33.6593C22.7885 33.6593 21.8126 33.5482 20.8887 33.243C20.0449 32.966 19.5738 32.658 18.9762 32.1476C18.3813 31.6343 18.0916 31.1182 17.861 30.5388C17.6304 29.9623 17.487 28.7641 17.487 27.6659V19.4252H14.4902V15.679C15.4493 15.6087 16.2438 15.3387 16.9132 14.7677C17.5882 14.194 18.1282 13.5063 18.5332 12.7048C18.941 11.9018 18.986 10.9188 18.986 9.68555H22.7323Z" fill="#414753"/>
</svg>
