<svg width="40" height="40" viewBox="0 0 40 40" fill="none" xmlns="http://www.w3.org/2000/svg">
<path d="M20.765 2.76684C20.5432 2.59391 20.27 2.5 19.9888 2.5C19.7075 2.5 19.4343 2.59391 19.2125 2.76684L1.25 16.7731L2.80375 18.7381L5 17.0256V32.4993C5.00132 33.162 5.26514 33.7971 5.73369 34.2656C6.20225 34.7342 6.83736 34.998 7.5 34.9993H32.5C33.1626 34.998 33.7978 34.7342 34.2663 34.2656C34.7349 33.7971 34.9987 33.162 35 32.4993V17.0368L37.1963 18.7493L38.75 16.7843L20.765 2.76684ZM22.5 32.4993H17.5V22.4993H22.5V32.4993ZM25 32.4993V22.4993C24.9993 21.8365 24.7357 21.201 24.267 20.7323C23.7983 20.2636 23.1628 20 22.5 19.9993H17.5C16.8372 20 16.2017 20.2636 15.733 20.7323C15.2643 21.201 15.0007 21.8365 15 22.4993V32.4993H7.5V15.0768L20 5.33934L32.5 15.0893V32.4993H25Z" fill="#EFA35A"/>
</svg>
