<svg width="40" height="40" viewBox="0 0 40 40" fill="none" xmlns="http://www.w3.org/2000/svg">
<path d="M35 2.5H20C19.3372 2.50066 18.7017 2.76427 18.233 3.23296C17.7643 3.70166 17.5007 4.33716 17.5 5V17.5H5C4.33716 17.5007 3.70166 17.7643 3.23296 18.233C2.76427 18.7017 2.50066 19.3372 2.5 20V37.5H37.5V5C37.4993 4.33716 37.2357 3.70166 36.767 3.23296C36.2983 2.76427 35.6628 2.50066 35 2.5ZM11.25 35V26.25H16.25V35H11.25ZM35 35H18.75V25C18.75 24.6685 18.6183 24.3505 18.3839 24.1161C18.1495 23.8817 17.8315 23.75 17.5 23.75H10C9.66848 23.75 9.35054 23.8817 9.11612 24.1161C8.8817 24.3505 8.75 24.6685 8.75 25V35H5V20H20V5H35V35Z" fill="#EFA35A"/>
<path d="M22.5 10H25V12.5H22.5V10ZM30 10H32.5V12.5H30V10ZM22.5 17.5H25V20H22.5V17.5ZM30 17.5H32.5V20H30V17.5ZM22.5 25H25V27.5H22.5V25ZM30 25H32.5V27.5H30V25Z" fill="#EFA35A"/>
</svg>
