<svg width="287" height="38" viewBox="0 0 287 38" fill="none" xmlns="http://www.w3.org/2000/svg">
<path d="M51.63 32H47.31V11H64.89V32H60.6V14.87H51.63V32ZM72.2463 32H67.7163L76.7163 10.88H80.8563L89.8563 32H85.2663L83.1963 27.14H74.3163L72.2463 32ZM78.7563 16.28L75.6663 23.57H81.8163L78.7563 16.28ZM96.6581 26.42C97.8881 27.71 99.4481 28.37 101.308 28.37C103.168 28.37 104.698 27.71 105.928 26.42C107.158 25.13 107.788 23.48 107.788 21.5C107.788 19.52 107.158 17.87 105.928 16.58C104.698 15.29 103.168 14.63 101.308 14.63C99.4481 14.63 97.8881 15.29 96.6581 16.58C95.4281 17.87 94.8281 19.52 94.8281 21.5C94.8281 23.48 95.4281 25.13 96.6581 26.42ZM90.4181 21.5C90.4181 18.44 91.4381 15.86 93.5081 13.76C95.5781 11.63 98.1881 10.58 101.308 10.58C104.428 10.58 107.008 11.63 109.078 13.76C111.148 15.86 112.198 18.44 112.198 21.5C112.198 24.53 111.148 27.11 109.078 29.24C107.008 31.37 104.428 32.42 101.308 32.42C98.1881 32.42 95.5781 31.37 93.5081 29.24C91.4381 27.11 90.4181 24.53 90.4181 21.5ZM134.425 32.42C131.155 32.42 128.455 31.4 126.295 29.36C124.135 27.29 123.055 24.68 123.055 21.5C123.055 18.29 124.135 15.68 126.265 13.64C128.425 11.6 131.155 10.58 134.425 10.58C136.495 10.58 138.325 11.03 139.975 11.9V16.25C138.355 15.17 136.525 14.63 134.455 14.63C132.445 14.63 130.795 15.29 129.445 16.58C128.125 17.87 127.465 19.49 127.465 21.5C127.465 23.51 128.155 25.16 129.505 26.45C130.855 27.74 132.565 28.37 134.635 28.37C136.915 28.37 138.835 27.77 140.395 26.54V30.89C138.685 31.91 136.705 32.42 134.425 32.42ZM152.358 17.99C154.308 17.99 155.898 18.59 157.128 19.82C158.358 21.05 158.988 22.67 158.988 24.68C158.988 26.93 158.238 28.79 156.738 30.23C155.268 31.67 153.408 32.39 151.158 32.39C148.518 32.39 146.478 31.52 145.068 29.75C143.658 27.98 142.938 25.61 142.938 22.64C142.938 18.65 143.988 15.98 146.478 14.15C147.738 13.22 149.208 12.47 150.858 11.93C152.538 11.36 154.668 10.88 157.248 10.46V14.39L155.658 14.66L154.098 14.93C153.768 14.99 153.318 15.08 152.688 15.23C151.488 15.47 151.098 15.62 150.138 15.98C149.178 16.34 148.818 16.67 148.188 17.24C147.348 17.99 146.898 19.1 146.778 20.54C148.128 18.83 149.988 17.99 152.358 17.99ZM151.128 28.82C153.288 28.82 154.818 27.23 154.818 24.98C154.818 22.85 153.348 21.5 151.278 21.5C149.598 21.5 147.918 22.46 147.078 23.78C147.108 27.02 148.608 28.82 151.128 28.82ZM169.439 32.39C167.099 32.39 165.119 31.67 163.529 30.23C161.939 28.79 161.129 26.87 161.129 24.5C161.129 22.28 161.849 20.42 163.289 18.92C164.729 17.39 166.619 16.64 168.929 16.64C171.119 16.64 172.829 17.42 174.119 18.95C175.409 20.48 176.069 22.34 176.069 24.56V25.67H165.329C165.779 27.71 167.699 28.79 170.339 28.79C172.019 28.79 173.609 28.34 175.139 27.47V30.86C173.789 31.88 171.899 32.39 169.439 32.39ZM165.329 22.97H171.899C171.809 21.32 170.639 19.97 168.749 19.97C166.829 19.97 165.539 21.2 165.329 22.97ZM188.466 16.64C190.506 16.64 192.186 17.39 193.506 18.92C194.856 20.42 195.516 22.28 195.516 24.53C195.516 26.75 194.856 28.61 193.506 30.14C192.186 31.64 190.506 32.39 188.466 32.39C186.336 32.39 184.716 31.64 183.546 30.17V38H179.316V17.03H183.546V18.86C184.656 17.39 186.306 16.64 188.466 16.64ZM187.266 20.33C185.616 20.33 184.236 21.29 183.546 22.58V26.48C184.236 27.77 185.616 28.7 187.266 28.7C188.436 28.7 189.426 28.31 190.176 27.5C190.926 26.69 191.316 25.7 191.316 24.53C191.316 23.33 190.926 22.34 190.176 21.53C189.426 20.72 188.436 20.33 187.266 20.33ZM207.143 17.99C209.093 17.99 210.683 18.59 211.913 19.82C213.143 21.05 213.773 22.67 213.773 24.68C213.773 26.93 213.023 28.79 211.523 30.23C210.053 31.67 208.193 32.39 205.943 32.39C203.303 32.39 201.263 31.52 199.853 29.75C198.443 27.98 197.723 25.61 197.723 22.64C197.723 18.65 198.773 15.98 201.263 14.15C202.523 13.22 203.993 12.47 205.643 11.93C207.323 11.36 209.453 10.88 212.033 10.46V14.39L210.443 14.66L208.883 14.93C208.553 14.99 208.103 15.08 207.473 15.23C206.273 15.47 205.883 15.62 204.923 15.98C203.963 16.34 203.603 16.67 202.973 17.24C202.133 17.99 201.683 19.1 201.563 20.54C202.913 18.83 204.773 17.99 207.143 17.99ZM205.913 28.82C208.073 28.82 209.603 27.23 209.603 24.98C209.603 22.85 208.133 21.5 206.063 21.5C204.383 21.5 202.703 22.46 201.863 23.78C201.893 27.02 203.393 28.82 205.913 28.82ZM231.154 28.73C231.514 28.73 231.814 28.67 232.024 28.55V31.64C231.484 32.06 230.734 32.27 229.744 32.27C228.034 32.27 226.924 31.64 226.354 30.35C225.034 31.7 223.324 32.39 221.194 32.39C217.954 32.39 215.674 30.41 215.674 27.38C215.674 25.79 216.244 24.56 217.414 23.72C218.584 22.88 219.964 22.46 221.584 22.46C223.264 22.46 224.704 22.76 225.904 23.39V22.94C225.904 21.05 224.584 20.12 221.944 20.12C220.354 20.12 218.824 20.54 217.414 21.38V17.84C218.944 17.03 220.774 16.64 222.964 16.64C225.094 16.64 226.834 17.15 228.124 18.2C229.444 19.25 230.104 20.69 230.104 22.52V27.59C230.104 28.34 230.464 28.73 231.154 28.73ZM225.904 27.59V26.09C225.034 25.52 224.014 25.22 222.784 25.22C220.984 25.22 219.844 25.94 219.844 27.17C219.844 28.49 220.954 29.12 222.514 29.12C223.984 29.12 225.124 28.61 225.904 27.59ZM239.181 32H234.951V17.03H239.181V22.58H245.331V17.03H249.561V32H245.331V26.12H239.181V32ZM257.931 32H253.701V17.03H257.931V22.49L263.091 17.03H268.281L261.771 23.78L269.301 32H263.841L257.931 25.55V32Z" fill="black"/>
<path fill-rule="evenodd" clip-rule="evenodd" d="M27.3353 2.29891L28.8117 3.74137L10.1664 15.1908L1.13897 9.60134L1.98265 7.79827L10.1664 12.8018L27.3353 2.29891ZM23.5809 0L25.5636 1.08184L10.1664 10.5479L2.99507 6.17551L4.21841 4.59782L10.1664 8.24903L23.5809 0ZM30.1194 5.2289L31.2162 6.80658L10.1664 19.7436L0 13.523L0.464025 11.5396L10.1664 17.4898L30.1194 5.2289Z" fill="url(#paint0_radial_106_8115)"/>
<path fill-rule="evenodd" clip-rule="evenodd" d="M34.0552 10.6144C34.6848 12.4881 35 14.4516 35 16.5066C35 18.5617 34.6848 20.556 34.0552 22.4895L33.6258 23.7133C32.745 25.9093 31.4771 27.9088 29.8896 29.6056C28.2876 31.2771 26.391 32.6014 24.3067 33.5035C22.1028 34.5007 19.8267 34.9992 17.4785 34.9992C15.102 34.9992 12.8259 34.5007 10.6503 33.5035C8.6173 32.597 6.77068 31.298 5.11043 29.6056C3.47853 27.8832 2.23313 25.9197 1.37423 23.7133C0.466382 21.4315 -0.000822038 18.9814 1.08575e-06 16.5066V15.2829L10.6503 21.6737L33.1104 8.07617L34.0552 10.6144Z" fill="url(#paint1_radial_106_8115)"/>
<defs>
<radialGradient id="paint0_radial_106_8115" cx="0" cy="0" r="1" gradientUnits="userSpaceOnUse" gradientTransform="translate(18.0126 17.3104) scale(19.7523 21.1067)">
<stop stop-color="#52A347"/>
<stop offset="0.502" stop-color="#83B03E"/>
<stop offset="0.706" stop-color="#2EA64C"/>
<stop offset="0.929" stop-color="#264122"/>
<stop offset="0.933" stop-color="#264122"/>
</radialGradient>
<radialGradient id="paint1_radial_106_8115" cx="0" cy="0" r="1" gradientUnits="userSpaceOnUse" gradientTransform="translate(18.638 16.9146) scale(20.1093 21.2239)">
<stop stop-color="#52A347"/>
<stop offset="0.502" stop-color="#83B03E"/>
<stop offset="0.706" stop-color="#2B9940"/>
<stop offset="0.929" stop-color="#264122"/>
<stop offset="0.933" stop-color="#264122"/>
</radialGradient>
</defs>
</svg>
