<svg width="365" height="35" viewBox="0 0 365 35" fill="none" xmlns="http://www.w3.org/2000/svg">
<path d="M51.63 32H47.31V11H64.89V32H60.6V14.87H51.63V32ZM72.2463 32H67.7163L76.7163 10.88H80.8563L89.8563 32H85.2663L83.1963 27.14H74.3163L72.2463 32ZM78.7563 16.28L75.6663 23.57H81.8163L78.7563 16.28ZM96.6581 26.42C97.8881 27.71 99.4481 28.37 101.308 28.37C103.168 28.37 104.698 27.71 105.928 26.42C107.158 25.13 107.788 23.48 107.788 21.5C107.788 19.52 107.158 17.87 105.928 16.58C104.698 15.29 103.168 14.63 101.308 14.63C99.4481 14.63 97.8881 15.29 96.6581 16.58C95.4281 17.87 94.8281 19.52 94.8281 21.5C94.8281 23.48 95.4281 25.13 96.6581 26.42ZM90.4181 21.5C90.4181 18.44 91.4381 15.86 93.5081 13.76C95.5781 11.63 98.1881 10.58 101.308 10.58C104.428 10.58 107.008 11.63 109.078 13.76C111.148 15.86 112.198 18.44 112.198 21.5C112.198 24.53 111.148 27.11 109.078 29.24C107.008 31.37 104.428 32.42 101.308 32.42C98.1881 32.42 95.5781 31.37 93.5081 29.24C91.4381 27.11 90.4181 24.53 90.4181 21.5ZM132.355 11H135.835L133.255 20.09H128.725L132.355 11ZM125.845 11H129.325L126.745 20.09H122.215L125.845 11ZM149.308 32.42C146.038 32.42 143.338 31.4 141.178 29.36C139.018 27.29 137.938 24.68 137.938 21.5C137.938 18.29 139.018 15.68 141.148 13.64C143.308 11.6 146.038 10.58 149.308 10.58C151.378 10.58 153.208 11.03 154.858 11.9V16.25C153.238 15.17 151.408 14.63 149.338 14.63C147.328 14.63 145.678 15.29 144.328 16.58C143.008 17.87 142.348 19.49 142.348 21.5C142.348 23.51 143.038 25.16 144.388 26.45C145.738 27.74 147.448 28.37 149.518 28.37C151.798 28.37 153.718 27.77 155.278 26.54V30.89C153.568 31.91 151.588 32.42 149.308 32.42ZM163.07 27.5C163.85 28.31 164.84 28.7 166.04 28.7C167.24 28.7 168.23 28.31 169.01 27.5C169.79 26.69 170.18 25.7 170.18 24.5C170.18 23.3 169.79 22.31 169.01 21.53C168.23 20.72 167.24 20.33 166.04 20.33C164.84 20.33 163.85 20.72 163.07 21.53C162.29 22.31 161.9 23.3 161.9 24.5C161.9 25.7 162.29 26.69 163.07 27.5ZM157.73 24.5C157.73 22.28 158.51 20.42 160.07 18.92C161.63 17.39 163.61 16.64 166.04 16.64C168.47 16.64 170.45 17.39 172.01 18.92C173.57 20.45 174.35 22.31 174.35 24.5C174.35 26.75 173.57 28.61 172.01 30.14C170.45 31.64 168.47 32.39 166.04 32.39C163.61 32.39 161.63 31.64 160.07 30.14C158.51 28.61 157.73 26.75 157.73 24.5ZM186.29 32H177.47V17.03H185.93C189.05 17.03 190.73 18.68 190.73 20.87C190.73 22.37 190.13 23.42 188.9 24.05C190.79 24.71 191.75 26 191.75 27.89C191.75 30.41 189.77 32 186.29 32ZM181.64 25.67V29.03H185.24C186.71 29.03 187.43 28.46 187.43 27.35C187.43 26.24 186.71 25.67 185.24 25.67H181.64ZM181.64 19.94V23H184.58C185.93 23 186.59 22.49 186.59 21.47C186.59 20.45 185.93 19.94 184.58 19.94H181.64ZM199.249 32H195.019V17.03H199.249V22.49L204.409 17.03H209.599L203.089 23.78L210.619 32H205.159L199.249 25.55V32ZM216.186 27.5C216.966 28.31 217.956 28.7 219.156 28.7C220.356 28.7 221.346 28.31 222.126 27.5C222.906 26.69 223.296 25.7 223.296 24.5C223.296 23.3 222.906 22.31 222.126 21.53C221.346 20.72 220.356 20.33 219.156 20.33C217.956 20.33 216.966 20.72 216.186 21.53C215.406 22.31 215.016 23.3 215.016 24.5C215.016 25.7 215.406 26.69 216.186 27.5ZM210.846 24.5C210.846 22.28 211.626 20.42 213.186 18.92C214.746 17.39 216.726 16.64 219.156 16.64C221.586 16.64 223.566 17.39 225.126 18.92C226.686 20.45 227.466 22.31 227.466 24.5C227.466 26.75 226.686 28.61 225.126 30.14C223.566 31.64 221.586 32.39 219.156 32.39C216.726 32.39 214.746 31.64 213.186 30.14C211.626 28.61 210.846 26.75 210.846 24.5ZM234.576 32H230.586V17.03H234.756L239.106 22.61L243.486 17.03H247.656V32H243.666V22.76L239.946 27.41H238.266L234.576 22.76V32ZM260.317 17.99C262.267 17.99 263.857 18.59 265.087 19.82C266.317 21.05 266.947 22.67 266.947 24.68C266.947 26.93 266.197 28.79 264.697 30.23C263.227 31.67 261.367 32.39 259.117 32.39C256.477 32.39 254.437 31.52 253.027 29.75C251.617 27.98 250.897 25.61 250.897 22.64C250.897 18.65 251.947 15.98 254.437 14.15C255.697 13.22 257.167 12.47 258.817 11.93C260.497 11.36 262.627 10.88 265.207 10.46V14.39L263.617 14.66L262.057 14.93C261.727 14.99 261.277 15.08 260.647 15.23C259.447 15.47 259.057 15.62 258.097 15.98C257.137 16.34 256.777 16.67 256.147 17.24C255.307 17.99 254.857 19.1 254.737 20.54C256.087 18.83 257.947 17.99 260.317 17.99ZM259.087 28.82C261.247 28.82 262.777 27.23 262.777 24.98C262.777 22.85 261.307 21.5 259.237 21.5C257.557 21.5 255.877 22.46 255.037 23.78C255.067 27.02 256.567 28.82 259.087 28.82ZM284.328 28.73C284.688 28.73 284.988 28.67 285.198 28.55V31.64C284.658 32.06 283.908 32.27 282.918 32.27C281.208 32.27 280.098 31.64 279.528 30.35C278.208 31.7 276.498 32.39 274.368 32.39C271.128 32.39 268.848 30.41 268.848 27.38C268.848 25.79 269.418 24.56 270.588 23.72C271.758 22.88 273.138 22.46 274.758 22.46C276.438 22.46 277.878 22.76 279.078 23.39V22.94C279.078 21.05 277.758 20.12 275.118 20.12C273.528 20.12 271.998 20.54 270.588 21.38V17.84C272.118 17.03 273.948 16.64 276.138 16.64C278.268 16.64 280.008 17.15 281.298 18.2C282.618 19.25 283.278 20.69 283.278 22.52V27.59C283.278 28.34 283.638 28.73 284.328 28.73ZM279.078 27.59V26.09C278.208 25.52 277.188 25.22 275.958 25.22C274.158 25.22 273.018 25.94 273.018 27.17C273.018 28.49 274.128 29.12 275.688 29.12C277.158 29.12 278.298 28.61 279.078 27.59ZM292.355 32H288.125V17.03H292.355V22.58H298.505V17.03H302.735V32H298.505V26.12H292.355V32ZM311.105 32H306.875V17.03H311.105V22.49L316.265 17.03H321.455L314.945 23.78L322.475 32H317.015L311.105 25.55V32ZM333.534 20.09H330.054L332.634 11H337.164L333.534 20.09ZM327.024 20.09H323.544L326.124 11H330.654L327.024 20.09Z" fill="black"/>
<g clip-path="url(#clip0_106_8151)">
<path d="M20.6432 2.13672V10.2888H17.5005C15.5879 10.2888 13.7537 11.0486 12.4012 12.401C11.0488 13.7534 10.2891 15.5877 10.2891 17.5003C10.2891 19.4129 11.0488 21.2471 12.4012 22.5995C13.7537 23.9519 15.5879 24.7117 17.5005 24.7117H20.6359V32.8638" stroke="black" stroke-width="3" stroke-linecap="round" stroke-linejoin="round"/>
<path d="M17.4993 33.1764C26.1576 33.1764 33.1764 26.1576 33.1764 17.4993C33.1764 8.84114 26.1576 1.82227 17.4993 1.82227C8.84114 1.82227 1.82227 8.84114 1.82227 17.4993C1.82227 26.1576 8.84114 33.1764 17.4993 33.1764Z" stroke="black" stroke-width="3" stroke-linecap="round" stroke-linejoin="round"/>
</g>
<defs>
<clipPath id="clip0_106_8151">
<rect width="35" height="35" fill="white"/>
</clipPath>
</defs>
</svg>
