<svg width="35" height="35" viewBox="0 0 35 35" fill="none" xmlns="http://www.w3.org/2000/svg">
<path d="M28.3651 11.6642C28.5239 11.1368 28.3651 10.75 27.6142 10.75H25.1268C24.4938 10.75 24.2046 11.0846 24.0458 11.4521C24.0458 11.4521 22.7811 14.5362 20.989 16.5359C20.4105 17.1177 20.1462 17.3015 19.8309 17.3015C19.6732 17.3015 19.4441 17.1177 19.4441 16.5903V11.6642C19.4441 11.0313 19.2615 10.75 18.7341 10.75H14.8254C14.4307 10.75 14.1925 11.0426 14.1925 11.3217C14.1925 11.9206 15.0886 12.0589 15.1804 13.7467V17.4081C15.1804 18.21 15.0364 18.3563 14.7188 18.3563C13.876 18.3563 11.8253 15.2609 10.6082 11.7175C10.3712 11.029 10.1319 10.7511 9.49667 10.7511H7.01037C6.29919 10.7511 6.15741 11.0857 6.15741 11.4532C6.15741 12.1134 7.00016 15.38 10.0831 19.7004C12.1384 22.6506 15.0319 24.25 17.6679 24.25C19.2479 24.25 19.443 23.8949 19.443 23.2824V21.0525C19.443 20.3424 19.5938 20.1995 20.0941 20.1995C20.4616 20.1995 21.0945 20.3855 22.5701 21.8068C24.2557 23.4923 24.5347 24.2488 25.4818 24.2488H27.9681C28.6781 24.2488 29.0332 23.8938 28.829 23.1928C28.6055 22.4953 27.8002 21.4801 26.7317 20.2789C26.151 19.5938 25.2833 18.8566 25.019 18.4879C24.6504 18.0127 24.757 17.8028 25.019 17.3809C25.0201 17.382 28.0497 13.1149 28.3651 11.6642Z" fill="#414753"/>
<path d="M0.75 0.75H34.25V34.25H0.75V0.75Z" stroke="#414753" stroke-width="1.5"/>
</svg>
