<svg width="294" height="37" viewBox="0 0 294 37" fill="none" xmlns="http://www.w3.org/2000/svg">
<path d="M32.0992 7.25825H5.71419L7.61495 0H34L32.0992 7.25825ZM31.1488 10.8874H4.75192L2.85115 18.1456H29.2362L31.1488 10.8874ZM28.2977 21.7418H1.90077L0 29H26.3613L28.2977 21.7418Z" fill="#353535"/>
<path d="M55.37 27H46.31V6H61.55V9.87H50.63V13.23H55.37C57.8 13.23 59.75 13.86 61.16 15.15C62.6 16.44 63.32 18.09 63.32 20.13C63.32 22.17 62.6 23.82 61.19 25.11C59.78 26.37 57.83 27 55.37 27ZM50.63 16.83V23.19H55.04C57.53 23.19 58.97 22.08 58.97 20.04C58.97 18 57.53 16.83 55.04 16.83H50.63ZM80.9157 23.73C81.2757 23.73 81.5757 23.67 81.7857 23.55V26.64C81.2457 27.06 80.4957 27.27 79.5057 27.27C77.7957 27.27 76.6857 26.64 76.1157 25.35C74.7957 26.7 73.0857 27.39 70.9557 27.39C67.7157 27.39 65.4357 25.41 65.4357 22.38C65.4357 20.79 66.0057 19.56 67.1757 18.72C68.3457 17.88 69.7257 17.46 71.3457 17.46C73.0257 17.46 74.4657 17.76 75.6657 18.39V17.94C75.6657 16.05 74.3457 15.12 71.7057 15.12C70.1157 15.12 68.5857 15.54 67.1757 16.38V12.84C68.7057 12.03 70.5357 11.64 72.7257 11.64C74.8557 11.64 76.5957 12.15 77.8857 13.2C79.2057 14.25 79.8657 15.69 79.8657 17.52V22.59C79.8657 23.34 80.2257 23.73 80.9157 23.73ZM75.6657 22.59V21.09C74.7957 20.52 73.7757 20.22 72.5457 20.22C70.7457 20.22 69.6057 20.94 69.6057 22.17C69.6057 23.49 70.7157 24.12 72.2757 24.12C73.7457 24.12 74.8857 23.61 75.6657 22.59ZM88.9426 27H84.7126V12.03H88.9426V17.58H95.0926V12.03H99.3226V27H95.0926V21.12H88.9426V27ZM107.693 27H103.463V12.03H107.693V17.49L112.853 12.03H118.043L111.533 18.78L119.063 27H113.603L107.693 20.55V27ZM139.897 27H129.337V6H139.207C143.047 6 145.567 7.89 145.567 11.25C145.567 13.38 144.367 14.82 142.927 15.42C144.097 15.66 145.087 16.29 145.927 17.28C146.767 18.27 147.187 19.5 147.187 21.03C147.187 22.8 146.527 24.24 145.207 25.35C143.887 26.46 142.117 27 139.897 27ZM133.657 17.79V23.28H139.087C141.217 23.28 142.507 22.32 142.507 20.55C142.507 18.78 141.217 17.79 139.087 17.79H133.657ZM133.657 9.6V14.22H138.517C140.317 14.22 141.397 13.38 141.397 11.94C141.397 10.47 140.317 9.6 138.517 9.6H133.657ZM148.494 9.87V6H166.104V9.87H159.444V27H155.124V9.87H148.494ZM178.388 27H169.328V6H184.568V9.87H173.648V13.23H178.388C180.818 13.23 182.768 13.86 184.178 15.15C185.618 16.44 186.338 18.09 186.338 20.13C186.338 22.17 185.618 23.82 184.208 25.11C182.798 26.37 180.848 27 178.388 27ZM173.648 16.83V23.19H178.058C180.548 23.19 181.988 22.08 181.988 20.04C181.988 18 180.548 16.83 178.058 16.83H173.648ZM206.059 33.18H201.739C198.859 29.55 197.419 24.99 197.419 19.5C197.419 14.07 198.859 9.51 201.739 5.82H206.059C202.879 9.9 201.289 14.46 201.289 19.5C201.289 24.54 202.879 29.1 206.059 33.18ZM213.55 27H209.23V6H226.81V27H222.52V9.87H213.55V27ZM234.166 27H229.636L238.636 5.88H242.776L251.776 27H247.186L245.116 22.14H236.236L234.166 27ZM240.676 11.28L237.586 18.57H243.736L240.676 11.28ZM258.578 21.42C259.808 22.71 261.368 23.37 263.228 23.37C265.088 23.37 266.618 22.71 267.848 21.42C269.078 20.13 269.708 18.48 269.708 16.5C269.708 14.52 269.078 12.87 267.848 11.58C266.618 10.29 265.088 9.63 263.228 9.63C261.368 9.63 259.808 10.29 258.578 11.58C257.348 12.87 256.748 14.52 256.748 16.5C256.748 18.48 257.348 20.13 258.578 21.42ZM252.338 16.5C252.338 13.44 253.358 10.86 255.428 8.76C257.498 6.63 260.108 5.58 263.228 5.58C266.348 5.58 268.928 6.63 270.998 8.76C273.068 10.86 274.118 13.44 274.118 16.5C274.118 19.53 273.068 22.11 270.998 24.24C268.928 26.37 266.348 27.42 263.228 27.42C260.108 27.42 257.498 26.37 255.428 24.24C253.358 22.11 252.338 19.53 252.338 16.5ZM279.112 33.18H274.792C277.972 29.1 279.562 24.54 279.562 19.5C279.562 14.46 277.972 9.9 274.792 5.82H279.112C281.992 9.51 283.432 14.07 283.432 19.5C283.432 24.99 281.992 29.55 279.112 33.18Z" fill="black"/>
</svg>
