<svg width="35" height="35" viewBox="0 0 35 35" fill="none" xmlns="http://www.w3.org/2000/svg">
<path d="M32.8125 2.1875V32.8125H2.1875V2.1875H32.8125ZM33.9062 1.09375H1.09375V33.9062H33.9062V1.09375Z" fill="#414753"/>
<path d="M32.8125 2.1875V32.8125H2.1875V2.1875H32.8125ZM33.9062 1.09375H1.09375V33.9062H33.9062V1.09375Z" fill="#414753"/>
<path d="M26.2743 9.45799C25.2345 8.40758 23.9958 7.57474 22.6307 7.00805C21.2656 6.44135 19.8013 6.15214 18.3232 6.15729C12.1301 6.15729 7.08268 11.2047 7.08268 17.3978C7.08268 19.3828 7.60444 21.311 8.57991 23.0124L6.99194 28.8425L12.9468 27.2772C14.5915 28.1733 16.4403 28.6497 18.3232 28.6497C24.5162 28.6497 29.5637 23.6022 29.5637 17.4091C29.5637 14.4034 28.3954 11.5791 26.2743 9.45799ZM18.3232 26.7441C16.6445 26.7441 14.9998 26.2904 13.5593 25.4397L13.219 25.2355L9.68014 26.1656L10.6216 22.7175L10.3947 22.3659C9.46207 20.8765 8.96685 19.155 8.96555 17.3978C8.96555 12.2483 13.1623 8.05151 18.3118 8.05151C20.8072 8.05151 23.1551 9.02697 24.9132 10.7964C25.7838 11.6629 26.4736 12.6936 26.9429 13.8288C27.4121 14.9639 27.6514 16.1809 27.6468 17.4091C27.6695 22.5587 23.4727 26.7441 18.3232 26.7441ZM23.45 19.7571C23.1665 19.621 21.7827 18.9404 21.5331 18.8383C21.2723 18.7476 21.0908 18.7022 20.898 18.9744C20.7051 19.258 20.172 19.8932 20.0132 20.0747C19.8544 20.2675 19.6843 20.2902 19.4007 20.1427C19.1172 20.0066 18.2098 19.7004 17.1436 18.7476C16.3042 17.999 15.7484 17.0802 15.5783 16.7966C15.4195 16.5131 15.5556 16.3656 15.7031 16.2182C15.8278 16.0934 15.9866 15.8892 16.1227 15.7304C16.2588 15.5716 16.3156 15.4469 16.4063 15.2654C16.497 15.0726 16.4517 14.9138 16.3836 14.7777C16.3156 14.6416 15.7484 13.2578 15.5216 12.6906C15.2947 12.1462 15.0565 12.2142 14.8864 12.2029H14.3419C14.1491 12.2029 13.8542 12.271 13.5933 12.5545C13.3438 12.8381 12.6179 13.5186 12.6179 14.9024C12.6179 16.2862 13.6274 17.6247 13.7635 17.8061C13.8996 17.999 15.7484 20.8346 18.5614 22.0483C19.2306 22.3432 19.7524 22.5133 20.1607 22.6381C20.8299 22.8536 21.4424 22.8196 21.9301 22.7515C22.4746 22.6721 23.5975 22.071 23.8243 21.4131C24.0625 20.7552 24.0625 20.1994 23.9831 20.0747C23.9037 19.9499 23.7336 19.8932 23.45 19.7571Z" fill="#414753"/>
</svg>
