<svg width="35" height="35" viewBox="0 0 35 35" fill="none" xmlns="http://www.w3.org/2000/svg">
<path d="M33.8333 1.16667V33.8333H1.16667V1.16667H33.8333ZM35 0H0V35H35V0Z" fill="#414753"/>
<path d="M33.8333 1.16667V33.8333H1.16667V1.16667H33.8333ZM35 0H0V35H35V0Z" fill="#414753"/>
<path d="M27.8629 12.9906C27.8629 12.9906 27.6564 11.4354 27.0229 10.7506C26.2179 9.85341 25.3172 9.84757 24.9042 9.79624C21.9444 9.56641 17.5052 9.56641 17.5052 9.56641H17.4947C17.4947 9.56641 13.0556 9.56641 10.0969 9.79624C9.6839 9.84757 8.78323 9.85224 7.97823 10.7506C7.34473 11.4354 7.13823 12.9906 7.13823 12.9906C7.13823 12.9906 6.92706 14.8152 6.92706 16.6411V18.3514C6.92706 20.1784 7.13823 22.0031 7.13823 22.0031C7.13823 22.0031 7.34473 23.5582 7.97823 24.2419C8.78323 25.1391 9.83906 25.1122 10.3104 25.2067C12.0021 25.3794 17.5006 25.4331 17.5006 25.4331C17.5006 25.4331 21.9444 25.4249 24.9042 25.1986C25.3172 25.1461 26.2179 25.1402 27.0229 24.2431C27.6564 23.5594 27.8629 22.0042 27.8629 22.0042C27.8629 22.0042 28.0741 20.1784 28.0741 18.3526V16.6422C28.0741 14.8152 27.8629 12.9906 27.8629 12.9906ZM14.8592 21.4664V13.5331L21.4696 17.4997L14.8592 21.4664Z" fill="#414753"/>
</svg>
